<svg width="160" height="160" viewBox="0 0 160 160" fill="none" xmlns="http://www.w3.org/2000/svg" role="img" aria-label="DialogDungeon logo">
  <rect x="8" y="8" width="144" height="144" rx="36" fill="#111827"/>
  <rect x="15" y="15" width="130" height="130" rx="30" fill="url(#tile)"/>
  <path d="M35 87C35 57.5 54.5 35 80 35C105.5 35 125 57.5 125 87C125 112.5 106.1 132 82 132H77C52.9 132 35 112.5 35 87Z" fill="#F9FBFF"/>
  <path d="M51 91V73C51 57 63.9 44 80 44C96.1 44 109 57 109 73V91" stroke="#111827" stroke-width="9" stroke-linecap="round"/>
  <path d="M62 91V76C62 71.6 65.6 68 70 68C74.4 68 78 71.6 78 76V91" stroke="#111827" stroke-width="8" stroke-linecap="round"/>
  <path d="M82 91V76C82 71.6 85.6 68 90 68C94.4 68 98 71.6 98 76V91" stroke="#111827" stroke-width="8" stroke-linecap="round"/>
  <path d="M48 96H112" stroke="#111827" stroke-width="9" stroke-linecap="round"/>
  <path d="M61 112H99" stroke="#34C759" stroke-width="9" stroke-linecap="round"/>
  <path d="M83 24L69 49H84L75 69L101 38H85L93 24H83Z" fill="#FFB800" stroke="#111827" stroke-width="5" stroke-linejoin="round"/>
  <path d="M42 121L26 136M118 121L134 136M28 42L43 55M132 42L117 55" stroke="#F9FBFF" stroke-opacity=".7" stroke-width="7" stroke-linecap="round"/>
  <defs>
    <linearGradient id="tile" x1="22" y1="22" x2="141" y2="139" gradientUnits="userSpaceOnUse">
      <stop stop-color="#58CC02"/>
      <stop offset=".46" stop-color="#1CB0F6"/>
      <stop offset="1" stop-color="#7C3AED"/>
    </linearGradient>
  </defs>
</svg>
